<svg width="43" height="44" viewBox="0 0 43 44" fill="none" xmlns="http://www.w3.org/2000/svg">
<path d="M17.9167 5.87496C17.409 5.87496 16.9838 5.70296 16.641 5.35896C16.2982 5.01496 16.1262 4.58974 16.125 4.08329C16.1238 3.57685 16.2958 3.15163 16.641 2.80763C16.9862 2.46363 17.4114 2.29163 17.9167 2.29163H25.0833C25.591 2.29163 26.0168 2.46363 26.3608 2.80763C26.7048 3.15163 26.8762 3.57685 26.875 4.08329C26.8738 4.58974 26.7018 5.01556 26.359 5.36075C26.0162 5.70595 25.591 5.87735 25.0833 5.87496H17.9167ZM21.5 25.5833C22.0076 25.5833 22.4335 25.4113 22.7775 25.0673C23.1215 24.7233 23.2929 24.2981 23.2917 23.7916V16.625C23.2917 16.1173 23.1197 15.6921 22.7757 15.3493C22.4317 15.0065 22.0064 14.8345 21.5 14.8333C20.9936 14.8321 20.5683 15.0041 20.2243 15.3493C19.8803 15.6945 19.7083 16.1197 19.7083 16.625V23.7916C19.7083 24.2993 19.8803 24.7251 20.2243 25.0691C20.5683 25.4131 20.9936 25.5845 21.5 25.5833ZM21.5 39.9166C19.2903 39.9166 17.2072 39.4914 15.2507 38.641C13.2942 37.7905 11.5849 36.6331 10.1229 35.1687C8.66092 33.7043 7.5041 31.9945 6.65246 30.0392C5.80082 28.0839 5.375 26.0013 5.375 23.7916C5.375 21.5819 5.80082 19.4988 6.65246 17.5423C7.5041 15.5858 8.66092 13.8765 10.1229 12.4145C11.5849 10.9525 13.2948 9.79572 15.2525 8.94408C17.2102 8.09244 19.2927 7.66663 21.5 7.66663C23.3514 7.66663 25.1281 7.96524 26.8302 8.56246C28.5323 9.15968 30.1299 10.0257 31.6229 11.1604L32.8771 9.90621C33.2056 9.57774 33.6236 9.4135 34.1312 9.4135C34.6389 9.4135 35.0569 9.57774 35.3854 9.90621C35.7139 10.2347 35.8781 10.6527 35.8781 11.1604C35.8781 11.668 35.7139 12.0861 35.3854 12.4145L34.1312 13.6687C35.266 15.1618 36.1319 16.7593 36.7292 18.4614C37.3264 20.1635 37.625 21.9402 37.625 23.7916C37.625 26.0013 37.1992 28.0845 36.3475 30.041C35.4959 31.9975 34.3391 33.7067 32.8771 35.1687C31.4151 36.6307 29.7052 37.7881 27.7475 38.641C25.7898 39.4938 23.7073 39.919 21.5 39.9166ZM21.5 36.3333C24.9639 36.3333 27.9201 35.109 30.3688 32.6604C32.8174 30.2118 34.0417 27.2555 34.0417 23.7916C34.0417 20.3277 32.8174 17.3715 30.3688 14.9229C27.9201 12.4743 24.9639 11.25 21.5 11.25C18.0361 11.25 15.0799 12.4743 12.6313 14.9229C10.1826 17.3715 8.95833 20.3277 8.95833 23.7916C8.95833 27.2555 10.1826 30.2118 12.6313 32.6604C15.0799 35.109 18.0361 36.3333 21.5 36.3333Z" fill="#422919"/>
</svg>
